<?xml version="1.0" encoding="UTF-8" standalone="no"?>
<!-- Created with Inkscape (http://www.inkscape.org/) -->

<svg
   width="210mm"
   height="297mm"
   viewBox="0 0 210 297"
   version="1.1"
   id="svg5"
   inkscape:version="1.2 (dc2aedaf03, 2022-05-15)"
   sodipodi:docname="unlockey_logo.svg"
   inkscape:export-filename="unlockey_logo.png"
   inkscape:export-xdpi="96"
   inkscape:export-ydpi="96"
   xmlns:inkscape="http://www.inkscape.org/namespaces/inkscape"
   xmlns:sodipodi="http://sodipodi.sourceforge.net/DTD/sodipodi-0.dtd"
   xmlns="http://www.w3.org/2000/svg"
   xmlns:svg="http://www.w3.org/2000/svg">
  <sodipodi:namedview
     id="namedview7"
     pagecolor="#505050"
     bordercolor="#ffffff"
     borderopacity="1"
     inkscape:showpageshadow="0"
     inkscape:pageopacity="0"
     inkscape:pagecheckerboard="1"
     inkscape:deskcolor="#505050"
     inkscape:document-units="mm"
     showgrid="false"
     showguides="true"
     inkscape:zoom="0.35355339"
     inkscape:cx="-237.58788"
     inkscape:cy="620.83975"
     inkscape:window-width="1892"
     inkscape:window-height="1037"
     inkscape:window-x="12"
     inkscape:window-y="12"
     inkscape:window-maximized="1"
     inkscape:current-layer="layer1" />
  <defs
     id="defs2" />
  <g
     inkscape:label="Layer 1"
     inkscape:groupmode="layer"
     id="layer1">
    <g
       id="g2712"
       transform="translate(190.20878,86.664121)"
       inkscape:export-filename="./g2712.png"
       inkscape:export-xdpi="150"
       inkscape:export-ydpi="150">
      <rect
         style="fill:#181818;fill-opacity:1;stroke-width:0.732439"
         id="rect1234"
         width="79.907951"
         height="66.798279"
         x="-307.94708"
         y="69.787956"
         inkscape:export-filename="./rect1234.png"
         inkscape:export-xdpi="150"
         inkscape:export-ydpi="150" />
      <rect
         style="fill:#b8b8b8;fill-opacity:1;stroke-width:0.732439"
         id="rect1843"
         width="125.75716"
         height="66.798279"
         x="-228.03911"
         y="69.787956" />
      <rect
         style="fill:#181818;fill-opacity:1;stroke-width:0.732439"
         id="rect2662"
         width="122.07315"
         height="66.798279"
         x="-102.28193"
         y="69.787956" />
      <text
         xml:space="preserve"
         style="font-size:70.3142px;text-align:center;text-anchor:middle;fill:#000000;stroke-width:0.732439"
         x="24.146046"
         y="121.4687"
         id="text168"><tspan
           sodipodi:role="line"
           id="tspan166"
           style="font-style:normal;font-variant:normal;font-weight:900;font-stretch:expanded;font-size:70.3142px;font-family:Iosevka;-inkscape-font-specification:'Iosevka Heavy Expanded';text-align:end;text-anchor:end;stroke-width:0.732439"
           x="24.146057"
           y="121.4687"><tspan
             style="fill:#b8b8b8;fill-opacity:1;stroke-width:0.732439"
             id="tspan2608">un</tspan><tspan
             style="fill:#ab4642;fill-opacity:1;stroke-width:0.732439"
             id="tspan1687">loc</tspan><tspan
             style="fill:#a1b56c;fill-opacity:1;stroke-width:0.732439"
             id="tspan2093">ke</tspan><tspan
             style="fill:#b8b8b8;fill-opacity:1;stroke-width:0.732439"
             id="tspan2504">y</tspan></tspan></text>
      <path
         id="text168-6"
         style="font-size:25.4px;text-align:center;text-anchor:middle;fill:#ab4642;fill-opacity:1;stroke-width:0.732439"
         d="m -85.478582,69.763688 v 51.681182 h 0.005 v -9.21124 l 2.03854,-2.60212 8.01674,11.81336 h 11.67178 l -13.35982,-19.75862 13.35982,-16.804567 h -11.74187 l -9.98517,14.0622 V 69.763688 Z" />
      <path
         id="text168-0"
         style="font-size:25.4px;text-align:center;text-anchor:middle;fill:#a16946;fill-opacity:1;stroke-width:0.732439"
         d="m -181.98766,103.18712 v 3.62066 c 0,1.40627 0.14064,2.81243 0.42197,4.2187 0.28128,1.40627 0.74997,2.71949 1.40623,3.93828 0.70315,1.21879 1.56945,2.32017 2.60073,3.30453 1.07814,0.98441 2.25064,1.78106 3.51626,2.39045 1.31255,0.56256 2.67221,0.93832 4.07849,1.12585 1.40628,0.2345 2.81238,0.35032 4.21866,0.35032 1.40628,0 2.8124,-0.11582 4.21868,-0.35032 1.40627,-0.18713 2.74271,-0.56312 4.00836,-1.12585 1.31251,-0.60939 2.48358,-1.40604 3.51484,-2.39045 1.07815,-0.98436 1.9459,-2.08574 2.60214,-3.30453 0.70314,-1.21879 1.19506,-2.53201 1.47632,-3.93828 0.28128,-1.40627 0.42203,-2.81243 0.42203,-4.2187 v -3.62066 h -10.26556 v 3.62066 c 0,0.84377 -0.0944,1.71157 -0.28179,2.60218 -0.18742,0.84378 -0.56193,1.61721 -1.12442,2.32034 -0.51565,0.65624 -1.1962,1.14816 -2.03997,1.47634 -0.84376,0.32806 -1.68684,0.4918 -2.5306,0.4918 -0.84378,0 -1.68832,-0.16374 -2.53207,-0.4918 -0.84374,-0.32806 -1.54612,-0.8201 -2.10862,-1.47634 -0.5156,-0.70313 -0.86681,-1.47656 -1.0543,-2.32034 -0.18743,-0.89061 -0.28179,-1.75841 -0.28179,-2.60218 v -3.62066 z" />
    </g>
  </g>
</svg>
